<svg width="24" height="24" viewBox="0 0 24 24" fill="none" xmlns="http://www.w3.org/2000/svg">
<path d="M20.5928 1.08252C19.9331 1.0767 18.9756 1.51156 17.7686 2.43603C17.7433 2.41259 17.7161 2.38981 17.688 2.36853C17.2211 2.0157 16.557 2.10819 16.2041 2.57511C15.8568 3.03463 15.941 3.68605 16.3887 4.04291C16.1696 4.71495 16.3385 5.38588 16.7212 5.92377C16.7055 6.23792 16.5942 6.50244 16.2539 6.76752C15.8238 7.10258 15.3662 7.52961 14.9091 8.03173C13.8645 7.49923 13.0636 6.66289 12.3779 5.70697L12.476 5.66595C14.1987 4.93752 13.5332 3.77858 11.959 4.44425C11.6434 3.69819 11.2715 3.38052 10.9863 3.37348C10.5695 3.36317 10.3381 4.01647 10.7372 4.96133C8.8074 5.77733 9.4238 6.95703 11.2544 6.18299L11.3393 6.14642C12.008 7.45433 12.895 8.39586 14.0346 9.09064C13.2312 10.1636 12.4937 11.448 11.997 12.8451C11.305 12.3037 10.6338 12.062 9.95944 12.0658C9.03788 12.071 8.11046 12.5334 7.12051 13.3066L7.09266 13.2627C6.03001 11.5832 4.85171 12.2009 5.97207 13.9716C4.51229 14.8952 4.9974 16.1585 6.68251 15.0922C7.59638 16.5368 8.80327 15.964 7.80315 14.3832L7.7108 14.2367C9.4208 13.4742 10.6811 13.7264 11.4286 15.2094C11.3736 15.6567 11.3497 16.1103 11.3597 16.5658C9.87938 19.1434 7.44441 21.6503 4.80165 20.0682C2.64516 18.7773 1.45688 13.605 4.03266 12.413C-0.13265 13.0693 0.652038 19.8266 3.50096 21.8862C6.73018 24.2206 11.8025 22.3451 14.1167 18.7221C14.5494 18.2886 14.9625 17.8145 15.3516 17.31C16.673 17.7689 17.5797 18.9286 17.9194 20.4302L17.833 20.4243C15.9659 20.3065 16.0436 21.6407 17.7495 21.7485C17.6241 23.7382 18.965 23.556 19.0737 21.832C21.1648 21.9641 21.1409 20.6329 19.1572 20.5078L18.9961 20.4974C19.1049 18.2652 18.0073 16.7482 16.5308 15.5478C17.044 14.6549 17.4717 13.7055 17.7847 12.7338C18.4786 13.5455 19.5003 13.6808 20.8711 13.2553C21.6028 15.0564 22.8511 14.6623 22.0884 12.728C23.6953 12.0941 23.4572 10.7617 21.6021 11.4932C20.9752 9.9028 19.6824 10.2407 20.3686 11.981L20.461 12.2139C19.1765 12.5264 18.6417 11.9569 18.2139 10.9892C18.3816 9.99125 18.4135 8.98939 18.2784 8.01852C18.2138 7.55511 18.5141 7.30283 18.835 7.06053C19.2129 7.05725 19.5892 6.95145 19.9278 6.71628C20.3919 7.03349 21.0282 6.93359 21.3706 6.4805C21.7236 6.01363 21.631 5.3495 21.1641 4.99663C21.1326 4.97272 21.0992 4.9505 21.066 4.93072C21.9947 2.46467 21.7524 1.09264 20.5928 1.08252Z" fill="#978FC5"/>
</svg>
