<svg width="64" height="64" viewBox="0 0 64 64" fill="none" xmlns="http://www.w3.org/2000/svg">
<circle cx="31.5" cy="36.6826" r="23.5" fill="currentColor"/>
<rect x="22" y="10.1826" width="19" height="6" fill="currentColor"/>
<path d="M40.1524 5.15215C41.2402 5.34411 42.2776 4.61792 42.4696 3.53016C42.6615 2.4424 41.9353 1.40498 40.8476 1.21302L40.1524 5.15215ZM32.9799 12.4654C33.1668 11.1574 33.3848 8.9925 34.4084 7.26422C34.889 6.45263 35.5052 5.82273 36.3244 5.4393C37.141 5.05711 38.3443 4.83307 40.1524 5.15215L40.8476 1.21302C38.4057 0.782085 36.3382 1.01638 34.6287 1.81647C32.9219 2.61533 31.7568 3.89168 30.9666 5.22593C29.4485 7.78932 29.1666 10.8745 29.0201 11.8997L32.9799 12.4654Z" fill="currentColor"/>
</svg>
