<svg width="1920" height="1080" viewBox="0 0 1920 1080" fill="none" xmlns="http://www.w3.org/2000/svg">
<path d="M0 -174V1746" stroke="#B3B3B3" stroke-opacity="0.1"/>
<path d="M43.6359 -174V1746" stroke="#B3B3B3" stroke-opacity="0.1"/>
<path d="M87.2719 -174V1746" stroke="#B3B3B3" stroke-opacity="0.1"/>
<path d="M130.909 -174V1746" stroke="#B3B3B3" stroke-opacity="0.1"/>
<path d="M174.545 -174V1746" stroke="#B3B3B3" stroke-opacity="0.1"/>
<path d="M218.181 -174V1746" stroke="#B3B3B3" stroke-opacity="0.1"/>
<path d="M261.818 -174V1746" stroke="#B3B3B3" stroke-opacity="0.1"/>
<path d="M305.454 -174V1746" stroke="#B3B3B3" stroke-opacity="0.1"/>
<path d="M349.09 -174V1746" stroke="#B3B3B3" stroke-opacity="0.1"/>
<path d="M392.727 -174V1746" stroke="#B3B3B3" stroke-opacity="0.1"/>
<path d="M436.363 -174V1746" stroke="#B3B3B3" stroke-opacity="0.1"/>
<path d="M480 -174V1746" stroke="#B3B3B3" stroke-opacity="0.1"/>
<path d="M523.636 -174V1746" stroke="#B3B3B3" stroke-opacity="0.1"/>
<path d="M567.272 -174V1746" stroke="#B3B3B3" stroke-opacity="0.1"/>
<path d="M610.909 -174V1746" stroke="#B3B3B3" stroke-opacity="0.1"/>
<path d="M654.545 -174V1746" stroke="#B3B3B3" stroke-opacity="0.1"/>
<path d="M698.181 -174V1746" stroke="#B3B3B3" stroke-opacity="0.1"/>
<path d="M741.818 -174V1746" stroke="#B3B3B3" stroke-opacity="0.1"/>
<path d="M785.454 -174V1746" stroke="#B3B3B3" stroke-opacity="0.1"/>
<path d="M829.09 -174V1746" stroke="#B3B3B3" stroke-opacity="0.1"/>
<path d="M872.727 -174V1746" stroke="#B3B3B3" stroke-opacity="0.1"/>
<path d="M916.363 -174V1746" stroke="#B3B3B3" stroke-opacity="0.1"/>
<path d="M960 -174V1746" stroke="#B3B3B3" stroke-opacity="0.1"/>
<path d="M1003.64 -174V1746" stroke="#B3B3B3" stroke-opacity="0.1"/>
<path d="M1047.27 -174V1746" stroke="#B3B3B3" stroke-opacity="0.1"/>
<path d="M1090.91 -174V1746" stroke="#B3B3B3" stroke-opacity="0.1"/>
<path d="M1134.54 -174V1746" stroke="#B3B3B3" stroke-opacity="0.1"/>
<path d="M1178.18 -174V1746" stroke="#B3B3B3" stroke-opacity="0.1"/>
<path d="M1221.82 -174V1746" stroke="#B3B3B3" stroke-opacity="0.1"/>
<path d="M1265.45 -174V1746" stroke="#B3B3B3" stroke-opacity="0.1"/>
<path d="M1309.09 -174V1746" stroke="#B3B3B3" stroke-opacity="0.1"/>
<path d="M1352.73 -174V1746" stroke="#B3B3B3" stroke-opacity="0.1"/>
<path d="M1396.36 -174V1746" stroke="#B3B3B3" stroke-opacity="0.1"/>
<path d="M1440 -174V1746" stroke="#B3B3B3" stroke-opacity="0.1"/>
<path d="M1483.64 -174V1746" stroke="#B3B3B3" stroke-opacity="0.1"/>
<path d="M1527.27 -174V1746" stroke="#B3B3B3" stroke-opacity="0.1"/>
<path d="M1570.91 -174V1746" stroke="#B3B3B3" stroke-opacity="0.1"/>
<path d="M1614.54 -174V1746" stroke="#B3B3B3" stroke-opacity="0.1"/>
<path d="M1658.18 -174V1746" stroke="#B3B3B3" stroke-opacity="0.1"/>
<path d="M1701.82 -174V1746" stroke="#B3B3B3" stroke-opacity="0.1"/>
<path d="M1745.45 -174V1746" stroke="#B3B3B3" stroke-opacity="0.1"/>
<path d="M1789.09 -174V1746" stroke="#B3B3B3" stroke-opacity="0.1"/>
<path d="M1832.73 -174V1746" stroke="#B3B3B3" stroke-opacity="0.1"/>
<path d="M1876.36 -174V1746" stroke="#B3B3B3" stroke-opacity="0.1"/>
<path d="M1920 -174V1746" stroke="#B3B3B3" stroke-opacity="0.1"/>
<path d="M0 0.545227H1920" stroke="#B3B3B3" stroke-opacity="0.1"/>
<path d="M0 44.1818H1920" stroke="#B3B3B3" stroke-opacity="0.1"/>
<path d="M0 87.818H1920" stroke="#B3B3B3" stroke-opacity="0.1"/>
<path d="M0 131.454H1920" stroke="#B3B3B3" stroke-opacity="0.1"/>
<path d="M0 175.091H1920" stroke="#B3B3B3" stroke-opacity="0.1"/>
<path d="M0 218.727H1920" stroke="#B3B3B3" stroke-opacity="0.1"/>
<path d="M0 262.364H1920" stroke="#B3B3B3" stroke-opacity="0.1"/>
<path d="M0 306H1920" stroke="#B3B3B3" stroke-opacity="0.1"/>
<path d="M0 349.636H1920" stroke="#B3B3B3" stroke-opacity="0.1"/>
<path d="M0 393.273H1920" stroke="#B3B3B3" stroke-opacity="0.1"/>
<path d="M0 436.909H1920" stroke="#B3B3B3" stroke-opacity="0.1"/>
<path d="M0 480.545H1920" stroke="#B3B3B3" stroke-opacity="0.1"/>
<path d="M0 524.182H1920" stroke="#B3B3B3" stroke-opacity="0.1"/>
<path d="M0 567.818H1920" stroke="#B3B3B3" stroke-opacity="0.1"/>
<path d="M0 611.454H1920" stroke="#B3B3B3" stroke-opacity="0.1"/>
<path d="M0 655.091H1920" stroke="#B3B3B3" stroke-opacity="0.1"/>
<path d="M0 698.727H1920" stroke="#B3B3B3" stroke-opacity="0.1"/>
<path d="M0 742.364H1920" stroke="#B3B3B3" stroke-opacity="0.1"/>
<path d="M0 786H1920" stroke="#B3B3B3" stroke-opacity="0.1"/>
<path d="M0 829.636H1920" stroke="#B3B3B3" stroke-opacity="0.1"/>
<path d="M0 873.272H1920" stroke="#B3B3B3" stroke-opacity="0.1"/>
<path d="M0 916.909H1920" stroke="#B3B3B3" stroke-opacity="0.1"/>
<path d="M0 960.546H1920" stroke="#B3B3B3" stroke-opacity="0.1"/>
<path d="M0 1004.18H1920" stroke="#B3B3B3" stroke-opacity="0.1"/>
<path d="M0 1047.82H1920" stroke="#B3B3B3" stroke-opacity="0.1"/>
</svg>
