<svg width="32" height="19" viewBox="0 0 32 19" fill="none" xmlns="http://www.w3.org/2000/svg">
<path d="M17.0247 18.5466C16.4841 19.1511 15.5159 19.1511 14.9753 18.5466L0.33348 2.17229C-0.426809 1.32204 0.196812 -9.85848e-07 1.35817 -8.87517e-07L30.6418 1.59189e-06C31.8032 1.69023e-06 32.4268 1.32204 31.6665 2.17229L17.0247 18.5466Z" fill="currentColor"/>
<path fill-rule="evenodd" clip-rule="evenodd" d="M1.35817 1.31284L16 17.6872L30.6418 1.31284L1.35817 1.31284ZM14.9753 18.5466C15.5159 19.1511 16.4841 19.1511 17.0247 18.5466L31.6665 2.17229C32.4268 1.32204 31.8032 1.69023e-06 30.6418 1.59189e-06L1.35817 -8.87517e-07C0.196812 -9.85848e-07 -0.426808 1.32204 0.33348 2.17229L14.9753 18.5466Z" fill="#484068"/>
</svg>
